HIERARCHY
ROOT hip
{
	OFFSET 0.000000 0.000000 0.000000 
	CHANNELS 6 Xposition Yposition Zposition Xrotation Zrotation Yrotation
	JOINT abdomen
	{
		OFFSET 0.000000 3.402643 0.000000 
		CHANNELS 3 Xrotation Zrotation Yrotation
		JOINT chest
		{
			OFFSET 0.000000 8.438565 -0.680529 
			CHANNELS 3 Xrotation Zrotation Yrotation
			JOINT neck
			{
				OFFSET 0.000000 10.207942 -0.272212 
				CHANNELS 3 Xrotation Zrotation Yrotation
				JOINT head
				{
					OFFSET 0.000000 3.130431 0.000000 
					CHANNELS 3 Xrotation Zrotation Yrotation
					End Site
					{
						OFFSET 0.000000 3.130435 0.000000 
					}
				}
			}
			JOINT lCollar
			{
				OFFSET 3.470700 6.669187 -0.816635 
				CHANNELS 3 Yrotation Zrotation Xrotation
				JOINT lShldr
				{
					OFFSET 3.198488 0.000000 0.000000 
					CHANNELS 3 Zrotation Yrotation Xrotation
					JOINT lForeArm
					{
						OFFSET 10.139888 0.000000 0.000000 
						CHANNELS 3 Yrotation Zrotation Xrotation
						JOINT lHand
						{
							OFFSET 8.370511 0.000000 0.000000 
							CHANNELS 3 Zrotation Yrotation Xrotation
							End Site
							{
								OFFSET 4.083176 0.000000 0.000000 
							}
						}
					}
				}
			}
			JOINT rCollar
			{
				OFFSET -3.470700 6.669187 -0.816635 
				CHANNELS 3 Yrotation Zrotation Xrotation
				JOINT rShldr
				{
					OFFSET -3.198488 0.000000 0.000000 
					CHANNELS 3 Zrotation Yrotation Xrotation
					JOINT rForeArm
					{
						OFFSET -10.139888 0.000000 0.000000 
						CHANNELS 3 Yrotation Zrotation Xrotation
						JOINT rHand
						{
							OFFSET -8.370511 0.000000 0.000000 
							CHANNELS 3 Zrotation Yrotation Xrotation
							End Site
							{
								OFFSET -4.083176 0.000000 0.000000 
							}
						}
					}
				}
			}
		}
	}
	JOINT lThigh
	{
		OFFSET 5.308129 -1.633274 1.361059 
		CHANNELS 3 Xrotation Zrotation Yrotation
		JOINT lShin
		{
			OFFSET -2.041588 -20.007561 0.000000 
			CHANNELS 3 Xrotation Zrotation Yrotation
			JOINT lFoot
			{
				OFFSET 0.000000 -19.190928 -1.224953 
				CHANNELS 3 Xrotation Yrotation Zrotation
				End Site
				{
					OFFSET 0.000000 -2.449906 4.627600 
				}
			}
		}
	}
	JOINT rThigh
	{
		OFFSET -5.308129 -1.633274 1.361059 
		CHANNELS 3 Xrotation Zrotation Yrotation
		JOINT rShin
		{
			OFFSET 2.041588 -20.007561 0.000000 
			CHANNELS 3 Xrotation Zrotation Yrotation
			JOINT rFoot
			{
				OFFSET 0.000000 -19.190928 -1.224953 
				CHANNELS 3 Xrotation Yrotation Zrotation
				End Site
				{
					OFFSET 0.000000 -2.449906 4.627600 
				}
			}
		}
	}
}
MOTION
Frames: 8
Frame Time: 0.011111
21.805653 45.815891 -146.133255 9.223715 -6.530980 -9.734702 17.758209 5.169503 14.430091 -22.948174 -2.486442 3.500020 -12.932240 -1.019728 -2.046203 18.832289 4.652514 -3.450360 -7.198545 -2.255300 -0.324897 -71.876625 -10.301081 -30.220913 -29.978714 0.537114 1.215232 8.524705 12.647240 -89.739639 5.113256 1.510366 0.237230 66.050713 29.106079 29.045708 78.177521 -7.267648 21.393068 -8.533279 -12.636986 52.855614 -49.840939 17.001057 -7.721920 29.574549 -5.347360 -4.820218 -29.096586 0.027934 -1.764182 23.552299 3.867447 4.735088 -0.105497 5.950827 0.693410 -5.008463 0.491927 3.227574 
21.869354 45.819523 -145.234802 9.296444 -6.093160 -10.326686 17.069313 4.436337 14.699717 -22.957556 -2.461064 3.655950 -12.051993 -0.921716 -2.038407 18.525484 5.089816 -3.307953 -7.198545 -2.255300 -0.324897 -71.735161 -9.207747 -30.025579 -29.743639 0.424141 1.148193 8.524705 12.647240 -88.880264 5.113256 1.510366 0.237230 66.166985 28.577065 29.086712 78.649696 -7.083193 21.664864 -8.533279 -12.636986 52.963039 -49.426338 16.990454 -7.266082 28.914848 -5.381893 -4.720759 -28.954426 -1.210857 -2.429997 24.090935 2.929857 5.122638 -0.106486 5.940863 0.683859 -5.017870 0.494319 3.228755 
21.912594 45.871014 -144.340302 9.118049 -5.084173 -10.785128 16.975281 2.936532 14.402575 -22.907995 -2.159362 3.712280 -11.827575 -0.473817 -2.182298 17.385035 4.451978 -3.601633 -7.198545 -2.255300 -0.324897 -71.683517 -8.944568 -30.229939 -29.234812 0.171569 1.001404 8.524705 12.647240 -87.786507 5.113256 1.510366 0.237230 66.159500 28.635288 29.208994 79.012703 -6.934529 21.884357 -8.533279 -12.636986 52.797016 -48.164978 16.345602 -6.603897 28.152340 -5.430605 -4.615526 -28.894350 -2.381864 -3.069949 24.674295 1.308768 5.046165 -0.106455 5.941050 0.693611 -5.006696 0.497080 3.229774 
21.971344 45.872990 -143.447815 8.969692 -4.562117 -10.557189 17.050732 2.301560 13.674507 -22.800669 -2.004610 3.566454 -13.196773 -1.210397 -1.999249 18.901764 5.697614 -3.247249 -7.198545 -2.255300 -0.324897 -71.682968 -9.161316 -30.675449 -28.394991 -0.233452 0.766546 8.524705 12.647240 -86.682999 5.113256 1.510366 0.237230 66.100510 28.943933 29.337357 79.203247 -6.854379 21.995697 -8.533279 -12.636986 52.377094 -47.154110 15.526365 -7.023720 27.651548 -5.449695 -4.565599 -28.692436 -3.451371 -3.664706 25.387064 0.478993 4.574071 -0.106426 5.940865 0.683858 -5.006124 0.498753 3.230481 
22.032738 45.851536 -142.536819 8.870328 -4.365511 -10.160083 16.662621 2.203943 13.099522 -22.849812 -2.064485 3.433367 -11.950792 -0.888558 -2.279795 17.518503 5.246807 -3.786479 -7.198545 -2.255300 -0.324897 -71.683144 -8.520743 -30.901739 -27.770927 -0.552369 0.597669 8.524705 12.647240 -85.501350 5.113256 1.510366 0.237230 66.306480 28.463125 29.340860 79.408325 -6.760984 22.118559 -8.533279 -12.636986 52.084133 -45.939701 15.066545 -5.530527 27.318520 -5.478731 -4.513247 -26.158661 -3.736978 -3.937624 26.205490 0.039700 4.104683 -0.106407 5.940866 0.683858 -5.008687 0.491274 3.227290 
22.060795 45.797077 -141.644974 8.635300 -4.106057 -10.106447 15.902560 1.399162 13.470284 -23.406023 -2.297362 3.630448 -8.887012 0.277791 -2.935510 15.116233 4.755316 -4.895686 -7.198545 -2.255300 -0.324897 -70.895683 -6.621988 -29.799944 -27.683252 -0.586075 0.577843 8.524705 12.647240 -84.544319 5.113256 1.510366 0.237230 67.293861 26.586039 28.207481 79.784149 -6.592420 22.348511 -8.533279 -12.636986 51.752102 -44.574596 14.763734 -2.672901 27.551083 -5.454577 -4.557949 -22.482058 -2.716861 -3.618356 27.159761 -0.486804 3.900208 -0.115104 5.940925 0.692722 -5.013964 0.505692 3.233606 
22.076305 45.829094 -140.772614 8.438049 -3.962618 -9.769772 15.918614 0.924094 13.089961 -23.766882 -2.189911 3.572392 -8.536963 0.395594 -2.991205 15.109714 5.053291 -4.936654 -7.198545 -2.255300 -0.324897 -70.743813 -6.079563 -29.711288 -27.332664 -0.764274 0.486922 8.524705 12.647240 -84.007217 5.113256 1.510366 0.237230 67.648178 25.589661 27.893948 80.099182 -6.442524 22.543356 -8.533279 -12.636986 51.849762 -43.732883 14.411812 -0.798878 28.202084 -5.430642 -4.619915 -18.824448 -0.093046 -2.817975 27.849825 -0.937130 3.472587 -0.106387 5.940864 0.683858 -5.007972 0.489338 3.237077 
22.113277 46.029778 -139.823318 8.345173 -3.608867 -9.393047 15.861176 0.583578 12.184607 -23.708122 -1.871486 3.349806 -9.009477 0.034578 -2.745658 15.692529 5.619009 -4.430142 -7.198545 -2.255300 -0.324897 -71.130913 -6.111432 -30.376976 -26.894844 -0.986658 0.374896 8.524705 12.647240 -83.538467 5.113256 1.510366 0.237230 67.587204 25.141464 28.133665 80.219711 -6.384631 22.615849 -8.533279 -12.636986 52.259907 -43.370121 13.844798 0.860669 29.263945 -5.371965 -4.759489 -14.257339 3.665819 -2.127574 28.272211 -1.512322 2.881155 -0.106335 5.940865 0.683857 -5.007413 0.494993 3.228882 
